{"asset":{"generator":"3D Builder","version":"2.0"},"scene":0,"scenes":[{"nodes":[0]}],"nodes":[{"mesh":0,"matrix":[39.370079040527344,0,0,0,0,-4.6932791519793682E-6,-39.370075225830078,0,0,39.370075225830078,-4.6932791519793682E-6,0,-57.500614166259766,-39.499832153320313,-100.00141143798828,1]}],"meshes":[{"primitives":[{"attributes":{"POSITION":0},"mode":4,"indices":1,"material":0}]}],"materials":[{"name":"Scene_-_Root","pbrMetallicRoughness":{"baseColorFactor":[0.49695909023284912,0.49695909023284912,0.49695909023284912,1],"metallicFactor":0,"roughnessFactor":0.39999997615814209},"alphaMode":"OPAQUE"}],"accessors":[{"bufferView":0,"byteOffset":0,"count":7445,"componentType":5126,"type":"VEC3","min":[1.0160409212112427,-2.9845108985900879,-4.5102347030478995E-6],"max":[1.9049900770187378,-2.0955617427825928,2.0065956115722656]},{"bufferView":1,"byteOffset":0,"count":45054,"componentType":5125,"type":"SCALAR"}],"bufferViews":[{"buffer":0,"byteOffset":0,"byteLength":89340,"byteStride":12,"target":34962},{"buffer":0,"byteOffset":89340,"byteLength":180216,"target":34963}],"buffers":[{"byteLength":269556,"uri":"QueenPiece.bin"}]}